# xmcd
#
# Track frame offsets: 
#        150
#        19906
#        38340
#        56788
#        64316
#        80350
#        98272
#        119588
#        140447
#        155431
#        172556
#        187893
#        199261
#        212262
#
# Disc length: 3040 seconds
#
# Revision: 2
# Processed by: cddbd v1.5.2PL0 Copyright (c) Steve Scherf et al.
# Submitted via: ExactAudioCopyFreeDBPlugin 1.0
#
DISCID=ac0bde0e
DTITLE=群星 - Concert YY黃偉文作品展
DYEAR=2012
DGENRE=Pop
TTITLE0=陳奕迅 - 活着多好
TTITLE1=Shine - 祖與占
TTITLE2=Shine - 燕尾蝶
TTITLE3=黃偉文 - YY 話（９）
TTITLE4=麥浚龍 - 耿耿於懷
TTITLE5=容祖兒 - 16 號愛人
TTITLE6=許志安＋車婉婉 - 會過去的
TTITLE7=許志安 - 灰飛煙滅
TTITLE8=陳曉東 - 水瓶座
TTITLE9=鄭伊健 - 吻感
TTITLE10=鄭伊健 - 發現
TTITLE11=黃偉文 - YY 話（10）
TTITLE12=盧巧音 - 好心分手
TTITLE13=謝安琪 - 囍帖街
EXTD=
EXTT0=
EXTT1=
EXTT2=
EXTT3=
EXTT4=
EXTT5=
EXTT6=
EXTT7=
EXTT8=
EXTT9=
EXTT10=
EXTT11=
EXTT12=
EXTT13=
PLAYORDER=
